<svg xmlns="http://www.w3.org/2000/svg" width="680" height="688" viewBox="0 0 680 688" role="img"><title>计算副本分布在两个故障域</title><desc>计算层跨域部署；共享存储的容灾仍需单独验证。</desc><defs><marker id="blue-arrow" viewBox="0 0 10 10" refX="8" refY="5" markerWidth="7" markerHeight="7" orient="auto"><path d="M1 1 L8 5 L1 9 Z" fill="#707680"/></marker><marker id="blue-open" viewBox="0 0 10 10" refX="8" refY="5" markerWidth="7" markerHeight="7" orient="auto"><path d="M1 1 L8 5 L1 9" fill="none" stroke="#707680" stroke-width="1.5"/></marker><marker id="purple-arrow" viewBox="0 0 10 10" refX="8" refY="5" markerWidth="7" markerHeight="7" orient="auto"><path d="M1 1 L8 5 L1 9 Z" fill="#707680"/></marker><marker id="purple-open" viewBox="0 0 10 10" refX="8" refY="5" markerWidth="7" markerHeight="7" orient="auto"><path d="M1 1 L8 5 L1 9" fill="none" stroke="#707680" stroke-width="1.5"/></marker><marker id="teal-arrow" viewBox="0 0 10 10" refX="8" refY="5" markerWidth="7" markerHeight="7" orient="auto"><path d="M1 1 L8 5 L1 9 Z" fill="#707680"/></marker><marker id="teal-open" viewBox="0 0 10 10" refX="8" refY="5" markerWidth="7" markerHeight="7" orient="auto"><path d="M1 1 L8 5 L1 9" fill="none" stroke="#707680" stroke-width="1.5"/></marker><marker id="amber-arrow" viewBox="0 0 10 10" refX="8" refY="5" markerWidth="7" markerHeight="7" orient="auto"><path d="M1 1 L8 5 L1 9 Z" fill="#707680"/></marker><marker id="amber-open" viewBox="0 0 10 10" refX="8" refY="5" markerWidth="7" markerHeight="7" orient="auto"><path d="M1 1 L8 5 L1 9" fill="none" stroke="#707680" stroke-width="1.5"/></marker><marker id="red-arrow" viewBox="0 0 10 10" refX="8" refY="5" markerWidth="7" markerHeight="7" orient="auto"><path d="M1 1 L8 5 L1 9 Z" fill="#707680"/></marker><marker id="red-open" viewBox="0 0 10 10" refX="8" refY="5" markerWidth="7" markerHeight="7" orient="auto"><path d="M1 1 L8 5 L1 9" fill="none" stroke="#707680" stroke-width="1.5"/></marker><marker id="gray-arrow" viewBox="0 0 10 10" refX="8" refY="5" markerWidth="7" markerHeight="7" orient="auto"><path d="M1 1 L8 5 L1 9 Z" fill="#707680"/></marker><marker id="gray-open" viewBox="0 0 10 10" refX="8" refY="5" markerWidth="7" markerHeight="7" orient="auto"><path d="M1 1 L8 5 L1 9" fill="none" stroke="#707680" stroke-width="1.5"/></marker></defs><g font-family="Arial, PingFang SC, Noto Sans CJK SC, sans-serif"><rect x="0" y="0" width="680" height="688" rx="0" fill="#FFFFFF" stroke="none" stroke-width="1.2" /><rect x="32" y="26" width="32" height="4" rx="0" fill="#4063A8" stroke="none" stroke-width="1.2" /><text x="76" y="33" font-size="13" fill="#646A73" font-weight="600" text-anchor="start">04  /  部署图 · 目标</text><text x="32" y="74" font-size="26" fill="#1F2329" font-weight="600" text-anchor="start">计算副本分布在两个故障域</text><text x="32" y="103" font-size="14" fill="#646A73" font-weight="400" text-anchor="start">生产环境示意｜仅展示 HTTP 服务的部署与共享存储</text><path d="M32 612 H648" fill="none" stroke="#D8E0EA" stroke-width="1" stroke-linejoin="round" stroke-linecap="round"   /><text x="32" y="641" font-size="14" fill="#1F2329" font-weight="500" text-anchor="start">计算层跨域部署；共享存储的容灾仍需单独验证。</text><text x="32" y="678" font-size="12" fill="#646A73" font-weight="400" text-anchor="start">engineering-docs · 合成示例 · 680px 正文版</text><g id="lb"><rect x="232" y="146" width="216" height="64" rx="8" fill="#F0F4FC" stroke="#4063A8" stroke-width="1.2" /><text x="246" y="175.0" font-size="16" fill="#1F2329" font-weight="600" text-anchor="start">流量入口</text><text x="246" y="198.0" font-size="14" fill="#646A73" font-weight="400" text-anchor="start">HTTPS · 健康检查</text></g><rect x="32" y="276" width="290" height="178" rx="8" fill="#F0F4FC" stroke="#5178C6" stroke-width="1.2" /><text x="48" y="303" font-size="15" fill="#1F2329" font-weight="600" text-anchor="start">故障域 A</text><rect x="358" y="276" width="290" height="178" rx="8" fill="#EAE2FE" stroke="#8569CB" stroke-width="1.2" /><text x="374" y="303" font-size="15" fill="#1F2329" font-weight="600" text-anchor="start">故障域 B</text><g id="a"><rect x="62" y="342" width="230" height="76" rx="8" fill="#FFFFFF" stroke="#4063A8" stroke-width="1.2" /><text x="76" y="377.0" font-size="16" fill="#1F2329" font-weight="600" text-anchor="start">任务 API · 副本 A</text><text x="76" y="400.0" font-size="14" fill="#646A73" font-weight="400" text-anchor="start">独立计算实例</text></g><g id="b"><rect x="388" y="342" width="230" height="76" rx="8" fill="#FFFFFF" stroke="#7456B2" stroke-width="1.2" /><text x="402" y="377.0" font-size="16" fill="#1F2329" font-weight="600" text-anchor="start">任务 API · 副本 B</text><text x="402" y="400.0" font-size="14" fill="#646A73" font-weight="400" text-anchor="start">独立计算实例</text></g><g id="shared"><rect x="232" y="516" width="216" height="70" rx="8" fill="#FFFFFF" stroke="#367747" stroke-width="1.2" /><text x="246" y="548.0" font-size="16" fill="#1F2329" font-weight="600" text-anchor="start">共享结果存储</text><text x="246" y="571.0" font-size="14" fill="#646A73" font-weight="400" text-anchor="start">外部托管服务</text></g><path d="M274 210 V243 H177 V342" fill="none" stroke="#707680" stroke-width="1.5" stroke-linejoin="round" stroke-linecap="round"  marker-end="url(#blue-arrow)" id="e1" data-from="lb" data-to="a"/><rect x="157.0" y="247" width="40" height="21" rx="3" fill="#FFFFFF" stroke="none" stroke-width="1.2" /><text x="177" y="262" font-size="14" fill="#707680" font-weight="400" text-anchor="middle">路由</text><path d="M406 210 V243 H503 V342" fill="none" stroke="#707680" stroke-width="1.5" stroke-linejoin="round" stroke-linecap="round"  marker-end="url(#purple-arrow)" id="e2" data-from="lb" data-to="b"/><rect x="483.0" y="247" width="40" height="21" rx="3" fill="#FFFFFF" stroke="none" stroke-width="1.2" /><text x="503" y="262" font-size="14" fill="#707680" font-weight="400" text-anchor="middle">路由</text><path d="M177 418 V551 H232" fill="none" stroke="#707680" stroke-width="1.5" stroke-linejoin="round" stroke-linecap="round"  marker-end="url(#teal-arrow)" id="e3" data-from="a" data-to="shared"/><rect x="157.0" y="472" width="40" height="21" rx="3" fill="#FFFFFF" stroke="none" stroke-width="1.2" /><text x="177" y="487" font-size="14" fill="#707680" font-weight="400" text-anchor="middle">读取</text><path d="M503 418 V551 H448" fill="none" stroke="#707680" stroke-width="1.5" stroke-linejoin="round" stroke-linecap="round"  marker-end="url(#teal-arrow)" id="e4" data-from="b" data-to="shared"/><rect x="483.0" y="472" width="40" height="21" rx="3" fill="#FFFFFF" stroke="none" stroke-width="1.2" /><text x="503" y="487" font-size="14" fill="#707680" font-weight="400" text-anchor="middle">读取</text></g></svg>
