<?xml version="1.0" encoding="utf-8" standalone="no"?>
<!DOCTYPE svg PUBLIC "-//W3C//DTD SVG 1.1//EN"
  "http://www.w3.org/Graphics/SVG/1.1/DTD/svg11.dtd">
<svg xmlns:xlink="http://www.w3.org/1999/xlink" width="489.6pt" height="374.4pt" viewBox="0 0 489.6 374.4" xmlns="http://www.w3.org/2000/svg" version="1.1"><title>变更后延迟下降，缺测仍保留</title><desc>样例数据｜1 分钟 P95，UTC；缺测不补零，时间相邻不证明因果。</desc>
 <metadata>
  <rdf:RDF xmlns:dc="http://purl.org/dc/elements/1.1/" xmlns:cc="http://creativecommons.org/ns#" xmlns:rdf="http://www.w3.org/1999/02/22-rdf-syntax-ns#">
   <cc:Work>
    <dc:type rdf:resource="http://purl.org/dc/dcmitype/StillImage"/>
    <dc:format>image/svg+xml</dc:format>
    <dc:creator>
     <cc:Agent>
      <dc:title>Matplotlib v3.9.4, https://matplotlib.org/</dc:title>
     </cc:Agent>
    </dc:creator>
   </cc:Work>
  </rdf:RDF>
 </metadata>
 <defs>
  <style type="text/css">*{stroke-linejoin: round; stroke-linecap: butt}</style>
 </defs>
 <g id="figure_1">
  <g id="patch_1">
   <path d="M 0 374.4
L 489.6 374.4
L 489.6 0
L 0 0
z
" style="fill: #ffffff"/>
  </g>
  <g id="axes_1">
   <g id="patch_2">
    <path d="M 68.544 299.52
L 455.328 299.52
L 455.328 108.576
L 68.544 108.576
z
" style="fill: #ffffff"/>
   </g>
   <g id="patch_3">
    <path d="M 268.577745 299.52
L 282.642618 299.52
L 282.642618 108.576
L 268.577745 108.576
z
" clip-path="url(#p1cd85bca1b)" style="fill: #fef1ce; stroke: #fef1ce; stroke-linejoin: miter"/>
   </g>
   <g id="matplotlib.axis_1">
    <g id="xtick_1">
     <g id="line2d_1"/>
     <g id="text_1">
      <text style="fill: #646a73; font: 10.5px 'Arial Unicode MS', 'DejaVu Sans', sans-serif; text-anchor: middle" x="80.264727" y="314.035703" transform="rotate(-0 80.264727 314.035703)">10:00</text>
     </g>
    </g>
    <g id="xtick_2">
     <g id="line2d_2"/>
     <g id="text_2">
      <text style="fill: #646a73; font: 10.5px 'Arial Unicode MS', 'DejaVu Sans', sans-serif; text-anchor: middle" x="158.402909" y="314.035703" transform="rotate(-0 158.402909 314.035703)">10:02</text>
     </g>
    </g>
    <g id="xtick_3">
     <g id="line2d_3"/>
     <g id="text_3">
      <text style="fill: #646a73; font: 10.5px 'Arial Unicode MS', 'DejaVu Sans', sans-serif; text-anchor: middle" x="236.541091" y="314.035703" transform="rotate(-0 236.541091 314.035703)">10:04</text>
     </g>
    </g>
    <g id="xtick_4">
     <g id="line2d_4"/>
     <g id="text_4">
      <text style="fill: #646a73; font: 10.5px 'Arial Unicode MS', 'DejaVu Sans', sans-serif; text-anchor: middle" x="314.679273" y="314.035703" transform="rotate(-0 314.679273 314.035703)">10:06</text>
     </g>
    </g>
    <g id="xtick_5">
     <g id="line2d_5"/>
     <g id="text_5">
      <text style="fill: #646a73; font: 10.5px 'Arial Unicode MS', 'DejaVu Sans', sans-serif; text-anchor: middle" x="392.817455" y="314.035703" transform="rotate(-0 392.817455 314.035703)">10:08</text>
     </g>
    </g>
   </g>
   <g id="matplotlib.axis_2">
    <g id="ytick_1">
     <g id="line2d_6">
      <path d="M 68.544 299.52
L 455.328 299.52
" clip-path="url(#p1cd85bca1b)" style="fill: none; stroke: #dee0e3; stroke-width: 0.6; stroke-linecap: round"/>
     </g>
     <g id="line2d_7"/>
     <g id="text_6">
      <text style="fill: #646a73; font: 10.5px 'Arial Unicode MS', 'DejaVu Sans', sans-serif; text-anchor: end" x="61.544" y="303.277852" transform="rotate(-0 61.544 303.277852)">0</text>
     </g>
    </g>
    <g id="ytick_2">
     <g id="line2d_8">
      <path d="M 68.544 231.325714
L 455.328 231.325714
" clip-path="url(#p1cd85bca1b)" style="fill: none; stroke: #dee0e3; stroke-width: 0.6; stroke-linecap: round"/>
     </g>
     <g id="line2d_9"/>
     <g id="text_7">
      <text style="fill: #646a73; font: 10.5px 'Arial Unicode MS', 'DejaVu Sans', sans-serif; text-anchor: end" x="61.544" y="235.083566" transform="rotate(-0 61.544 235.083566)">100</text>
     </g>
    </g>
    <g id="ytick_3">
     <g id="line2d_10">
      <path d="M 68.544 163.131429
L 455.328 163.131429
" clip-path="url(#p1cd85bca1b)" style="fill: none; stroke: #dee0e3; stroke-width: 0.6; stroke-linecap: round"/>
     </g>
     <g id="line2d_11"/>
     <g id="text_8">
      <text style="fill: #646a73; font: 10.5px 'Arial Unicode MS', 'DejaVu Sans', sans-serif; text-anchor: end" x="61.544" y="166.88928" transform="rotate(-0 61.544 166.88928)">200</text>
     </g>
    </g>
   </g>
   <g id="line2d_12">
    <path d="M 80.264727 152.902286
L 119.333818 155.630057
L 158.402909 150.174514
L 197.472 146.7648
L 236.541091 139.263429
M 314.679273 169.950857
L 353.748364 178.816114
L 392.817455 184.271657
L 431.886545 187.681371
" clip-path="url(#p1cd85bca1b)" style="fill: none; stroke: #4063a8; stroke-width: 1.8; stroke-linecap: round"/>
    <defs>
     <path id="m6c732fae19" d="M 0 1.8
C 0.477366 1.8 0.935244 1.610341 1.272792 1.272792
C 1.610341 0.935244 1.8 0.477366 1.8 0
C 1.8 -0.477366 1.610341 -0.935244 1.272792 -1.272792
C 0.935244 -1.610341 0.477366 -1.8 0 -1.8
C -0.477366 -1.8 -0.935244 -1.610341 -1.272792 -1.272792
C -1.610341 -0.935244 -1.8 -0.477366 -1.8 0
C -1.8 0.477366 -1.610341 0.935244 -1.272792 1.272792
C -0.935244 1.610341 -0.477366 1.8 0 1.8
z
" style="stroke: #4063a8"/>
    </defs>
    <g clip-path="url(#p1cd85bca1b)">
     <use xlink:href="#m6c732fae19" x="80.264727" y="152.902286" style="fill: #4063a8; stroke: #4063a8"/>
     <use xlink:href="#m6c732fae19" x="119.333818" y="155.630057" style="fill: #4063a8; stroke: #4063a8"/>
     <use xlink:href="#m6c732fae19" x="158.402909" y="150.174514" style="fill: #4063a8; stroke: #4063a8"/>
     <use xlink:href="#m6c732fae19" x="197.472" y="146.7648" style="fill: #4063a8; stroke: #4063a8"/>
     <use xlink:href="#m6c732fae19" x="236.541091" y="139.263429" style="fill: #4063a8; stroke: #4063a8"/>
     <use xlink:href="#m6c732fae19" x="314.679273" y="169.950857" style="fill: #4063a8; stroke: #4063a8"/>
     <use xlink:href="#m6c732fae19" x="353.748364" y="178.816114" style="fill: #4063a8; stroke: #4063a8"/>
     <use xlink:href="#m6c732fae19" x="392.817455" y="184.271657" style="fill: #4063a8; stroke: #4063a8"/>
     <use xlink:href="#m6c732fae19" x="431.886545" y="187.681371" style="fill: #4063a8; stroke: #4063a8"/>
    </g>
   </g>
   <g id="line2d_13">
    <path d="M 275.610182 299.52
L 275.610182 108.576
" clip-path="url(#p1cd85bca1b)" style="fill: none; stroke-dasharray: 4.44,1.92; stroke-dashoffset: 0; stroke: #896b21; stroke-width: 1.2; stroke-linecap: round"/>
   </g>
   <g id="patch_4">
    <path d="M 68.544 299.52
L 455.328 299.52
" style="fill: none; stroke: #9daabb; stroke-width: 0.6; stroke-linejoin: miter; stroke-linecap: square"/>
   </g>
   <g id="text_9">
    <text style="fill: #896b21; font: 10px 'Arial Unicode MS', 'DejaVu Sans', sans-serif; text-anchor: start" x="283.424" y="129.034286" transform="rotate(-0 283.424 129.034286)">配置变更 / 缺测</text>
   </g>
   <g id="patch_5">
    <path d="M 409.85694 208.377104
Q 420.141635 198.715138 430.426331 189.053171
" style="fill: none; stroke: #4063a8; stroke-width: 0.8; stroke-linecap: round"/>
   </g>
   <g id="text_10">
    <g id="patch_6">
     <path d="M 383.003636 222.897971
L 419.794261 222.897971
L 419.794261 209.747971
L 383.003636 209.747971
z
" style="fill: #ffffff"/>
    </g>
    <text style="fill: #4063a8; font: 10px 'Arial Unicode MS', 'DejaVu Sans', sans-serif; text-anchor: start" x="385.003636" y="218.905784" transform="rotate(-0 385.003636 218.905784)">164 ms</text>
   </g>
   <g id="text_11">
    <text style="fill: #646a73; font: 9.5px 'Arial Unicode MS', 'DejaVu Sans', sans-serif; text-anchor: start" x="68.544" y="99.0288" transform="rotate(-0 68.544 99.0288)">P95 延迟 · ms</text>
   </g>
  </g>
  <g id="line2d_14">
   <path d="M 23.0112 334.7136
L 466.5888 334.7136
" style="fill: none; stroke: #dee0e3; stroke-width: 0.6; stroke-linecap: round"/>
  </g>
  <g id="text_12">
   <text style="fill: #646a73; font: 9.5px 'Arial Unicode MS', 'DejaVu Sans', sans-serif; text-anchor: start" x="23.0112" y="22.464" transform="rotate(-0 23.0112 22.464)">13  /  趋势图 · 合成数据</text>
  </g>
  <g id="text_13">
   <text style="fill: #1f2329; font: 700 18px 'Arial Unicode MS', 'DejaVu Sans', sans-serif; text-anchor: start" x="23.0112" y="53.1648" transform="rotate(-0 23.0112 53.1648)">变更后延迟下降，缺测仍保留</text>
  </g>
  <g id="text_14">
   <text style="fill: #646a73; font: 10.2px 'Arial Unicode MS', 'DejaVu Sans', sans-serif; text-anchor: start" x="23.0112" y="74.88" transform="rotate(-0 23.0112 74.88)">P95 延迟（ms）｜10:00–10:09</text>
  </g>
  <g id="text_15">
   <text style="fill: #646a73; font: 9.1px 'Arial Unicode MS', 'DejaVu Sans', sans-serif; text-anchor: start" x="23.0112" y="354.9312" transform="rotate(-0 23.0112 354.9312)">样例数据｜1 分钟 P95，UTC；缺测不补零，时间相邻不证明因果。</text>
  </g>
 </g>
 <defs>
  <clipPath id="p1cd85bca1b">
   <rect x="68.544" y="108.576" width="386.784" height="190.944"/>
  </clipPath>
 </defs>
</svg>
